<?xml version="1.0" encoding="UTF-8"?><svg id="Camada_1" xmlns="http://www.w3.org/2000/svg" viewBox="0 0 34.88 42.04"><defs><style>.cls-1{fill:#c52229;}</style></defs><path class="cls-1" d="m1.15,26.9c1.74.67,3.32,1.41,4.98,1.87,2.13.6,4.31,1.09,6.49,1.42,1.06.16,2.22-.03,3.29-.26.93-.2,1.41-1.02,1.37-1.89-.05-.89-.62-1.36-1.41-1.54-1.9-.44-3.81-.84-5.72-1.24-2.51-.53-4.85-1.4-6.76-3.19C-1.29,17.68-1.09,9.5,3.78,5.04,6.97,2.11,10.82.68,15.02.22c5.63-.62,11.16.06,16.56,1.76,1.37.43,1.36.45,1.36,1.84,0,3.07,0,6.14,0,9.2v1.09c-.74-.25-1.35-.45-1.97-.66-3.27-1.07-6.61-1.82-10.06-1.87-.8-.01-1.65.08-2.37.38-.49.21-.96.81-1.12,1.34-.21.68.34,1.25.96,1.44,1.46.44,2.96.76,4.44,1.13,1.92.48,3.9.79,5.73,1.5,3.52,1.37,5.68,4,6.16,7.79.67,5.22-.5,9.82-4.89,13.17-2.47,1.89-5.35,2.84-8.39,3.28-6.52.94-12.88.22-19.06-2.08-.92-.34-1.27-.78-1.25-1.81.08-3.58.03-7.16.03-10.84"/></svg>