<svg width="30" height="33" viewBox="0 0 30 33" fill="none" xmlns="http://www.w3.org/2000/svg">
<path d="M28.4923 23.7714C26.4203 24.3372 24.3184 24.43 22.2427 24.0459C14.6056 22.636 9.53752 15.2752 10.9471 7.63826C11.3294 5.56437 12.1657 3.63152 13.4328 1.89893C13.7334 1.489 13.7409 0.934333 13.4514 0.516947C13.1639 0.0995619 12.6427 -0.0914259 12.153 0.0421057C6.07579 1.70044 1.41387 6.76098 0.275404 12.9349C-1.37363 21.8694 4.55333 30.4779 13.487 32.1275C19.7553 33.2831 25.9935 30.7955 29.7691 25.6329C30.0697 25.223 30.0771 24.6683 29.7896 24.2491C29.5035 23.8296 28.984 23.6386 28.4927 23.7721L28.4923 23.7714ZM13.9228 29.7744C6.28565 28.3645 1.21755 21.0053 2.62712 13.3668C3.41375 9.11126 6.02925 5.57001 9.71711 3.57212C9.20532 4.73174 8.8305 5.94478 8.59883 7.20441C6.9498 16.1388 12.8768 24.7473 21.8105 26.397C23.0701 26.629 24.3371 26.7122 25.602 26.6473C22.4188 29.378 18.1782 30.5597 13.9224 29.7752L13.9228 29.7744Z" fill="#DDDCDA"/>
</svg>
