<svg width="30" height="30" viewBox="0 0 30 30" fill="none" xmlns="http://www.w3.org/2000/svg">
<path d="M14.9999 6.09827C10.1084 6.09827 6.12793 10.0768 6.12793 14.9682C6.12793 19.8597 10.1081 23.8402 14.9999 23.8402C19.8918 23.8402 23.8719 19.86 23.8719 14.9682C23.8719 10.0766 19.8918 6.09827 14.9999 6.09827ZM14.9999 22.0686C11.0851 22.0686 7.90023 18.8838 7.90023 14.9675C7.90023 11.0526 11.0851 7.86777 14.9999 7.86777C18.9148 7.86777 22.0996 11.0526 22.0996 14.9675C22.0996 18.884 18.9148 22.0686 14.9999 22.0686Z" fill="black"/>
<path d="M15.8859 3.85769V0.885311C15.8859 0.396976 15.4888 0 15.0005 0C14.5122 0 14.1152 0.397011 14.1152 0.885311V3.85769C14.1152 4.34603 14.5122 4.74301 15.0005 4.74301C15.4889 4.74437 15.8859 4.34764 15.8859 3.85769Z" fill="black"/>
<path d="M14.1143 26.1417V29.114C14.1143 29.6024 14.5113 29.9994 14.9996 29.9994C15.4879 29.9994 15.8849 29.6023 15.8849 29.114V26.1417C15.8849 25.6533 15.4879 25.2564 14.9996 25.2564C14.5112 25.255 14.1143 25.6517 14.1143 26.1417Z" fill="black"/>
<path d="M3.85959 15.8865C4.34792 15.8865 4.7449 15.4895 4.7449 15.0012C4.7449 14.5128 4.34788 14.1158 3.85959 14.1158H0.885311C0.396977 14.1158 0 14.5129 0 15.0012C0 15.4895 0.397012 15.8865 0.885311 15.8865H3.85959Z" fill="black"/>
<path d="M29.1145 14.1143H26.1421C25.6538 14.1143 25.2568 14.5113 25.2568 14.9996C25.2568 15.4879 25.6538 15.8849 26.1421 15.8849H29.1145C29.6029 15.8849 29.9998 15.4879 29.9998 14.9996C29.9996 14.5112 29.6028 14.1143 29.1145 14.1143Z" fill="black"/>
<path d="M25.6068 4.39316C25.2606 4.04701 24.7004 4.04701 24.354 4.39316L22.3075 6.4397C21.9613 6.78586 21.9613 7.34608 22.3075 7.6925C22.4805 7.86558 22.7075 7.95224 22.9331 7.95224C23.16 7.95224 23.3872 7.86557 23.5603 7.6925L25.6068 5.64595C25.953 5.29952 25.953 4.73789 25.6068 4.39316Z" fill="black"/>
<path d="M6.44065 22.3066L4.39243 24.3548C4.04627 24.7009 4.04627 25.2612 4.39243 25.6076C4.56551 25.7807 4.79244 25.8673 5.01802 25.8673C5.24332 25.8673 5.47217 25.7807 5.64361 25.6076L7.69183 23.5594C8.03799 23.2132 8.03799 22.653 7.69183 22.3066C7.34705 21.9601 6.78678 21.9601 6.44065 22.3066Z" fill="black"/>
<path d="M7.69344 7.6927C8.03959 7.34655 8.03959 6.78632 7.69344 6.43991L5.64717 4.39365C5.30102 4.0475 4.74079 4.0475 4.39438 4.39365C4.04823 4.7398 4.04823 5.30003 4.39438 5.64644L6.44261 7.69298C6.61569 7.86606 6.84262 7.95273 7.0682 7.95273C7.2935 7.95246 7.52043 7.86578 7.69351 7.69271L7.69344 7.6927Z" fill="black"/>
<path d="M22.3094 22.3068C21.9633 22.653 21.9633 23.2132 22.3094 23.5596L24.356 25.6078C24.529 25.7809 24.756 25.8676 24.9832 25.8676C25.2101 25.8676 25.4357 25.7809 25.6088 25.6078C25.9549 25.2617 25.9549 24.7015 25.6088 24.355L23.5622 22.3068C23.2158 21.9604 22.6539 21.9604 22.3094 22.3068Z" fill="black"/>
</svg>
